<mxfile host="" modified="2020-07-02T19:31:36.566Z" agent="5.0 (Windows NT 10.0; Win64; x64) AppleWebKit/537.36 (KHTML, like Gecko) Code/1.46.1 Chrome/78.0.3904.130 Electron/7.3.1 Safari/537.36" etag="E6W0TkCkX9V8iSnYLtpk" version="13.1.3" pages="2">
    <diagram id="6hGFLwfOUW9BJ-s0fimq" name="Page-1">
        <mxGraphModel dx="1120" dy="1961" grid="1" gridSize="10" guides="1" tooltips="1" connect="1" arrows="1" fold="1" page="1" pageScale="1" pageWidth="827" pageHeight="1169" math="0" shadow="0">
            <root>
                <mxCell id="0"/>
                <mxCell id="1" parent="0"/>
                <mxCell id="2" value="BD" style="shape=datastore;whiteSpace=wrap;html=1;fillColor=#FFCCCC;" vertex="1" parent="1">
                    <mxGeometry x="19" y="-980" width="60" height="60" as="geometry"/>
                </mxCell>
                <UserObject label="Backend&lt;br style=&quot;font-size: 20px;&quot;&gt;" treeRoot="1" id="3">
                    <mxCell style="whiteSpace=wrap;html=1;align=right;treeFolding=1;treeMoving=1;newEdgeStyle={&quot;edgeStyle&quot;:&quot;elbowEdgeStyle&quot;,&quot;startArrow&quot;:&quot;none&quot;,&quot;endArrow&quot;:&quot;none&quot;};glass=0;fontFamily=Georgia;labelPosition=left;verticalLabelPosition=top;verticalAlign=bottom;labelBackgroundColor=#0A0A0A;labelBorderColor=#000000;fontColor=#FFFFFF;fontSize=20;gradientColor=none;fillColor=none;" vertex="1" parent="1">
                        <mxGeometry x="179" y="-1130" width="630" height="610" as="geometry"/>
                    </mxCell>
                </UserObject>
                <mxCell id="4" value="DAO" style="swimlane;startSize=23;fillColor=#e1d5e7;strokeColor=#000000;" vertex="1" parent="1">
                    <mxGeometry x="199" y="-735" width="310" height="190" as="geometry"/>
                </mxCell>
                <mxCell id="7" value="DTO" style="swimlane;startSize=20;fillColor=#DAE8FC;strokeColor=#0A0A0A;" vertex="1" parent="1">
                    <mxGeometry x="549" y="-1090" width="210" height="200" as="geometry"/>
                </mxCell>
                <mxCell id="8" value="AgenteFinanceiroDAO" style="swimlane;fillColor=#e1d5e7;strokeColor=#000000;" vertex="1" parent="1">
                    <mxGeometry x="209" y="-705" width="140" height="60" as="geometry"/>
                </mxCell>
                <mxCell id="56" style="edgeStyle=orthogonalEdgeStyle;rounded=0;orthogonalLoop=1;jettySize=auto;html=1;exitX=0;exitY=0.5;exitDx=0;exitDy=0;fontFamily=Georgia;entryX=1.15;entryY=0.5;entryDx=0;entryDy=0;entryPerimeter=0;" edge="1" parent="1" source="11" target="2">
                    <mxGeometry relative="1" as="geometry">
                        <mxPoint x="79" y="-860" as="targetPoint"/>
                    </mxGeometry>
                </mxCell>
                <mxCell id="11" value="Model" style="swimlane;fillColor=#fff2cc;strokeColor=#0F0D06;gradientDirection=north;glass=0;" vertex="1" parent="1">
                    <mxGeometry x="199" y="-1090" width="330" height="280" as="geometry"/>
                </mxCell>
                <mxCell id="12" value="AgenteFinanceiroController" style="swimlane;fillColor=#F8CECC;" vertex="1" parent="1">
                    <mxGeometry x="566.5" y="-784" width="180" height="65" as="geometry"/>
                </mxCell>
                <UserObject label="Frontend" treeRoot="1" id="13">
                    <mxCell style="whiteSpace=wrap;html=1;align=right;treeFolding=1;treeMoving=1;newEdgeStyle={&quot;edgeStyle&quot;:&quot;elbowEdgeStyle&quot;,&quot;startArrow&quot;:&quot;none&quot;,&quot;endArrow&quot;:&quot;none&quot;};glass=0;fontFamily=Georgia;labelPosition=left;verticalLabelPosition=bottom;verticalAlign=top;labelBackgroundColor=#0A0A0A;fontColor=#FFFFFF;labelBorderColor=#000000;fontSize=21;" vertex="1" parent="1">
                        <mxGeometry x="179" y="-490" width="630" height="440" as="geometry"/>
                    </mxCell>
                </UserObject>
                <mxCell id="15" value="Index" style="swimlane;flipH=0;fillColor=#d5e8d4;strokeColor=#000000;" vertex="1" parent="1">
                    <mxGeometry x="209" y="-449" width="100" height="90" as="geometry"/>
                </mxCell>
                <mxCell id="16" value="Home" style="swimlane;flipH=0;fillColor=#d5e8d4;strokeColor=#000000;" vertex="1" parent="1">
                    <mxGeometry x="359" y="-449" width="100" height="90" as="geometry"/>
                </mxCell>
                <mxCell id="20" value="ForgotPassword" style="swimlane;flipH=0;fillColor=#d5e8d4;strokeColor=#000000;" vertex="1" parent="1">
                    <mxGeometry x="499" y="-449" width="136" height="90" as="geometry"/>
                </mxCell>
                <mxCell id="21" value="Agente" style="swimlane;flipH=0;fillColor=#d5e8d4;strokeColor=#000000;" vertex="1" parent="1">
                    <mxGeometry x="679" y="-449" width="100" height="90" as="geometry"/>
                </mxCell>
                <mxCell id="28" value="ProjetoFinalApplication" style="swimlane;glass=0;fontFamily=Georgia;" vertex="1" parent="1">
                    <mxGeometry x="189" y="-1120" width="610" height="590" as="geometry"/>
                </mxCell>
                <mxCell id="34" value="UsuarioController " style="swimlane;fillColor=#F8CECC;" vertex="1" parent="1">
                    <mxGeometry x="566.5" y="-624" width="180" height="65" as="geometry"/>
                </mxCell>
                <mxCell id="35" value="TransacaoDAO" style="swimlane;fillColor=#e1d5e7;strokeColor=#000000;" vertex="1" parent="1">
                    <mxGeometry x="359" y="-705" width="140" height="60" as="geometry"/>
                </mxCell>
                <mxCell id="36" value="DepartamentoDAO" style="swimlane;fillColor=#e1d5e7;strokeColor=#000000;" vertex="1" parent="1">
                    <mxGeometry x="209" y="-625" width="140" height="60" as="geometry"/>
                </mxCell>
                <mxCell id="37" value="UsuarioDAO" style="swimlane;fillColor=#e1d5e7;strokeColor=#000000;" vertex="1" parent="1">
                    <mxGeometry x="359" y="-625" width="140" height="60" as="geometry"/>
                </mxCell>
                <mxCell id="57" style="edgeStyle=orthogonalEdgeStyle;rounded=0;orthogonalLoop=1;jettySize=auto;html=1;entryX=0.5;entryY=1;entryDx=0;entryDy=0;fontFamily=Georgia;" edge="1" parent="1" target="11">
                    <mxGeometry relative="1" as="geometry">
                        <mxPoint x="552" y="-780" as="sourcePoint"/>
                    </mxGeometry>
                </mxCell>
                <mxCell id="58" style="edgeStyle=orthogonalEdgeStyle;rounded=0;orthogonalLoop=1;jettySize=auto;html=1;exitX=0.5;exitY=0;exitDx=0;exitDy=0;entryX=0.5;entryY=1;entryDx=0;entryDy=0;fontFamily=Georgia;" edge="1" parent="1" source="39" target="7">
                    <mxGeometry relative="1" as="geometry">
                        <Array as="points">
                            <mxPoint x="654" y="-824"/>
                        </Array>
                    </mxGeometry>
                </mxCell>
                <mxCell id="65" style="edgeStyle=orthogonalEdgeStyle;rounded=0;orthogonalLoop=1;jettySize=auto;html=1;exitX=0;exitY=0.25;exitDx=0;exitDy=0;entryX=0.5;entryY=0;entryDx=0;entryDy=0;fontFamily=Georgia;" edge="1" parent="1" source="39" target="4">
                    <mxGeometry relative="1" as="geometry">
                        <Array as="points">
                            <mxPoint x="552" y="-755"/>
                            <mxPoint x="354" y="-755"/>
                        </Array>
                    </mxGeometry>
                </mxCell>
                <mxCell id="39" value="Controller" style="swimlane;fillColor=#F8CECC;strokeColor=#0F0D06;" vertex="1" parent="1">
                    <mxGeometry x="551.5" y="-824" width="210" height="280" as="geometry"/>
                </mxCell>
                <mxCell id="38" value="DepartamentoController " style="swimlane;fillColor=#F8CECC;" vertex="1" parent="1">
                    <mxGeometry x="566.5" y="-704" width="180" height="65" as="geometry"/>
                </mxCell>
                <mxCell id="40" value="Contadores" style="swimlane;fillColor=#DAE8FC;" vertex="1" parent="1">
                    <mxGeometry x="594" y="-1055" width="125" height="75" as="geometry"/>
                </mxCell>
                <mxCell id="41" value="Departamento" style="swimlane;fillColor=#FFF2CC;" vertex="1" parent="1">
                    <mxGeometry x="389" y="-930" width="110" height="90" as="geometry"/>
                </mxCell>
                <mxCell id="5" value="AgenteFinanceiroDash" style="swimlane;fillColor=#DAE8FC;" vertex="1" parent="1">
                    <mxGeometry x="581.5" y="-970" width="150" height="65" as="geometry"/>
                </mxCell>
                <mxCell id="42" value="AgenteFinanceiro" style="swimlane;fillColor=#FFF2CC;" vertex="1" parent="1">
                    <mxGeometry x="219" y="-930" width="110" height="90" as="geometry"/>
                </mxCell>
                <mxCell id="43" value="Transacao" style="swimlane;fillColor=#FFF2CC;" vertex="1" parent="1">
                    <mxGeometry x="389" y="-1055" width="110" height="90" as="geometry"/>
                </mxCell>
                <mxCell id="44" value="Usuario" style="swimlane;fillColor=#FFF2CC;" vertex="1" parent="1">
                    <mxGeometry x="219" y="-1055" width="110" height="90" as="geometry"/>
                </mxCell>
                <mxCell id="45" value="CSS" style="swimlane;glass=0;fontFamily=Georgia;fillColor=#b1ddf0;strokeColor=#10739e;" vertex="1" parent="1">
                    <mxGeometry x="189" y="-340" width="610" height="130" as="geometry"/>
                </mxCell>
                <mxCell id="24" value="Index" style="swimlane;fillColor=#b1ddf0;strokeColor=#10739e;" vertex="1" parent="45">
                    <mxGeometry x="20" y="30" width="100" height="90" as="geometry"/>
                </mxCell>
                <mxCell id="18" value="Home" style="swimlane;fillColor=#b1ddf0;strokeColor=#10739e;" vertex="1" parent="45">
                    <mxGeometry x="170" y="30" width="100" height="90" as="geometry"/>
                </mxCell>
                <mxCell id="17" value="ForgotPassword" style="swimlane;fillColor=#b1ddf0;strokeColor=#10739e;" vertex="1" parent="45">
                    <mxGeometry x="310" y="30" width="136" height="90" as="geometry"/>
                </mxCell>
                <mxCell id="19" value="Agente" style="swimlane;startSize=23;fillColor=#b1ddf0;strokeColor=#10739e;" vertex="1" parent="45">
                    <mxGeometry x="490" y="30" width="100" height="90" as="geometry"/>
                </mxCell>
                <mxCell id="68" style="edgeStyle=orthogonalEdgeStyle;rounded=0;orthogonalLoop=1;jettySize=auto;html=1;exitX=0.5;exitY=0;exitDx=0;exitDy=0;entryX=0.5;entryY=1;entryDx=0;entryDy=0;fontFamily=Georgia;" edge="1" parent="1" source="46" target="39">
                    <mxGeometry relative="1" as="geometry"/>
                </mxCell>
                <mxCell id="46" value="JavaScript" style="swimlane;glass=0;fontFamily=Georgia;fillColor=#d5e8d4;strokeColor=#000000;" vertex="1" parent="1">
                    <mxGeometry x="189" y="-480" width="610" height="130" as="geometry"/>
                </mxCell>
                <mxCell id="70" style="edgeStyle=orthogonalEdgeStyle;rounded=0;orthogonalLoop=1;jettySize=auto;html=1;exitX=0;exitY=0.5;exitDx=0;exitDy=0;entryX=0;entryY=0.5;entryDx=0;entryDy=0;fontFamily=Georgia;" edge="1" parent="1" source="48" target="45">
                    <mxGeometry relative="1" as="geometry"/>
                </mxCell>
                <mxCell id="71" style="edgeStyle=orthogonalEdgeStyle;rounded=0;orthogonalLoop=1;jettySize=auto;html=1;exitX=0;exitY=0.75;exitDx=0;exitDy=0;entryX=0;entryY=0.5;entryDx=0;entryDy=0;fontFamily=Georgia;" edge="1" parent="1" source="48" target="46">
                    <mxGeometry relative="1" as="geometry">
                        <Array as="points">
                            <mxPoint x="149" y="-102"/>
                            <mxPoint x="149" y="-415"/>
                        </Array>
                    </mxGeometry>
                </mxCell>
                <mxCell id="48" value="HTML" style="swimlane;glass=0;fontFamily=Georgia;fillColor=#ffcc99;strokeColor=#36393d;" vertex="1" parent="1">
                    <mxGeometry x="189" y="-200" width="610" height="130" as="geometry"/>
                </mxCell>
                <mxCell id="49" value="Index" style="swimlane;fillColor=#ffcc99;strokeColor=#36393d;" vertex="1" parent="48">
                    <mxGeometry x="20" y="30" width="100" height="90" as="geometry"/>
                </mxCell>
                <mxCell id="50" value="Home" style="swimlane;fillColor=#ffcc99;strokeColor=#36393d;" vertex="1" parent="48">
                    <mxGeometry x="170" y="30" width="100" height="90" as="geometry"/>
                </mxCell>
                <mxCell id="51" value="ForgotPassword" style="swimlane;fillColor=#ffcc99;strokeColor=#36393d;" vertex="1" parent="48">
                    <mxGeometry x="310" y="30" width="136" height="90" as="geometry"/>
                </mxCell>
                <mxCell id="52" value="Agente" style="swimlane;fillColor=#ffcc99;strokeColor=#36393d;" vertex="1" parent="48">
                    <mxGeometry x="490" y="30" width="100" height="90" as="geometry"/>
                </mxCell>
                <mxCell id="67" style="edgeStyle=orthogonalEdgeStyle;rounded=0;orthogonalLoop=1;jettySize=auto;html=1;exitX=0.85;exitY=0.95;exitDx=0;exitDy=0;exitPerimeter=0;fontFamily=Georgia;" edge="1" parent="1" source="2">
                    <mxGeometry relative="1" as="geometry">
                        <mxPoint x="199" y="-923.1764705882354" as="targetPoint"/>
                    </mxGeometry>
                </mxCell>
                <mxCell id="73" style="edgeStyle=orthogonalEdgeStyle;rounded=0;orthogonalLoop=1;jettySize=auto;html=1;exitX=0.5;exitY=0;exitDx=0;exitDy=0;entryX=0.5;entryY=1;entryDx=0;entryDy=0;fontFamily=Georgia;" edge="1" parent="1" source="72" target="13">
                    <mxGeometry relative="1" as="geometry"/>
                </mxCell>
                <mxCell id="72" value="" style="shape=actor;whiteSpace=wrap;html=1;glass=0;fontFamily=Georgia;fillColor=#FF8000;strokeColor=#b85450;" vertex="1" parent="1">
                    <mxGeometry x="454" y="20" width="80" height="100" as="geometry"/>
                </mxCell>
            </root>
        </mxGraphModel>
    </diagram>
    <diagram id="oCxtSNNj2RVYtF0CBagO" name="Page-2">
        <mxGraphModel dx="1120" dy="792" grid="1" gridSize="10" guides="1" tooltips="1" connect="1" arrows="1" fold="1" page="1" pageScale="1" pageWidth="827" pageHeight="1169" math="0" shadow="0">
            <root>
                <mxCell id="XWpw4FGTRMPi1XECuEUf-0"/>
                <mxCell id="XWpw4FGTRMPi1XECuEUf-1" parent="XWpw4FGTRMPi1XECuEUf-0"/>
            </root>
        </mxGraphModel>
    </diagram>
</mxfile>